<svg xmlns="http://www.w3.org/2000/svg" viewBox="0 0 1200 720" role="img" aria-labelledby="title desc">
  <title id="title">PhishGuard AI security dashboard</title><desc id="desc">A shield scanning a suspicious web address with nine security signals.</desc>
  <defs><linearGradient id="bg" x1="0" y1="0" x2="1" y2="1"><stop stop-color="#07110d"/><stop offset="1" stop-color="#101923"/></linearGradient><radialGradient id="glow"><stop stop-color="#b8f53e" stop-opacity=".24"/><stop offset="1" stop-color="#b8f53e" stop-opacity="0"/></radialGradient></defs>
  <rect width="1200" height="720" fill="url(#bg)"/><circle cx="820" cy="340" r="360" fill="url(#glow)"/>
  <g fill="none" stroke="#b8f53e"><path d="M600 115 825 195v156c0 140-92 228-225 278-133-50-225-138-225-278V195z" stroke-width="12"/><path d="m505 362 62 62 137-153" stroke-width="24" stroke-linecap="round" stroke-linejoin="round"/></g>
  <rect x="95" y="95" width="300" height="54" rx="27" fill="#b8f53e" fill-opacity=".12" stroke="#b8f53e" stroke-opacity=".5"/><text x="125" y="130" fill="#dfff9e" font-family="Arial,sans-serif" font-size="22" font-weight="700">PHISHGUARD / LIVE SCAN</text>
  <g font-family="Arial,sans-serif"><text x="95" y="250" fill="#fff" font-size="54" font-weight="800">Trust every click.</text><text x="98" y="300" fill="#91a099" font-size="24">AI-assisted URL risk analysis</text></g>
  <g fill="#101a15" stroke="#b8f53e" stroke-opacity=".35"> <rect x="92" y="365" width="220" height="80" rx="16"/><rect x="92" y="460" width="220" height="80" rx="16"/><rect x="92" y="555" width="220" height="80" rx="16"/></g>
  <g fill="#b8f53e" font-family="Arial,sans-serif" font-size="20" font-weight="700"><text x="120" y="414">09 URL SIGNALS</text><text x="120" y="509">REAL-TIME API</text><text x="120" y="604">RISK PROBABILITY</text></g>
  <g fill="#b8f53e"> <circle cx="930" cy="180" r="7"/><circle cx="974" cy="225" r="7"/><circle cx="1000" cy="280" r="7"/><circle cx="1010" cy="340" r="7"/><circle cx="1000" cy="400" r="7"/><circle cx="974" cy="455" r="7"/><circle cx="930" cy="500" r="7"/><circle cx="880" cy="530" r="7"/><circle cx="830" cy="550" r="7"/></g>
</svg>
